inDegrees=yes
DataType=double
version=3
OpenSimVersion=4.5-2024-07-22-fc2981e9e
endheader
time	pelvis_tx	pelvis_ty	pelvis_tz	pelvis_tilt	pelvis_list	pelvis_rotation	hip_flexion_r	hip_adduction_r	hip_rotation_r	knee_angle_r	ankle_angle_r	subtalar_angle_r	mtp_angle_r	hip_flexion_l	hip_adduction_l	hip_rotation_l	knee_angle_l	ankle_angle_l	subtalar_angle_l	mtp_angle_l	lumbar_extension	lumbar_bending	lumbar_rotation	ground_force_vx	ground_force_vy	ground_force_vz	ground_force_px	ground_force_py	ground_force_pz	ground_force_vx	ground_force_vy	ground_force_vz	ground_force_px	ground_force_py	ground_force_pz	ground_torque_x	ground_torque_y	ground_torque_z	ground_torque_x	ground_torque_y	ground_torque_z	ground_marker_px	ground_marker_py	ground_marker_pz	ground_marker_px	ground_marker_py	ground_marker_pz	ground_marker_px	ground_marker_py	ground_marker_pz	ground_marker_px	ground_marker_py	ground_marker_pz	ground_marker_px	ground_marker_py	ground_marker_pz	ground_marker_px	ground_marker_py	ground_marker_pz	ground_marker_px	ground_marker_py	ground_marker_pz	ground_marker_px	ground_marker_py	ground_marker_pz	ground_marker_px	ground_marker_py	ground_marker_pz	ground_marker_px	ground_marker_py	ground_marker_pz	ground_marker_px	ground_marker_py	ground_marker_pz	ground_marker_px	ground_marker_py	ground_marker_pz	ground_marker_px	ground_marker_py	ground_marker_pz	ground_marker_px	ground_marker_py	ground_marker_pz	ground_marker_px	ground_marker_py	ground_marker_pz	ground_marker_px	ground_marker_py	ground_marker_pz	ground_marker_px	ground_marker_py	ground_marker_pz	ground_marker_px	ground_marker_py	ground_marker_pz	ground_marker_px	ground_marker_py	ground_marker_pz	ground_marker_px	ground_marker_py	ground_marker_pz	ground_marker_px	ground_marker_py	ground_marker_pz	ground_marker_px	ground_marker_py	ground_marker_pz	ground_marker_px	ground_marker_py	ground_marker_pz	ground_marker_px	ground_marker_py	ground_marker_pz	ground_marker_px	ground_marker_py	ground_marker_pz	ground_marker_px	ground_marker_py	ground_marker_pz	ground_marker_px	ground_marker_py	ground_marker_pz	ground_marker_px	ground_marker_py	ground_marker_pz	ground_marker_px	ground_marker_py	ground_marker_pz	ground_marker_px	ground_marker_py	ground_marker_pz	ground_marker_px	ground_marker_py	ground_marker_pz	ground_marker_px	ground_marker_py	ground_marker_pz	ground_marker_px	ground_marker_py	ground_marker_pz	ground_marker_px	ground_marker_py	ground_marker_pz	ground_marker_px	ground_marker_py	ground_marker_pz	ground_marker_px	ground_marker_py	ground_marker_pz	ground_marker_px	ground_marker_py	ground_marker_pz
0.61249993	1.141132987983344	0.9731603595942342	-0.3009307173619399	-3.719039626635221	-3.074907256526553	10	28.21239565388334	-2.125747734388612	7.534794930830387	-16.58124431031359	-6.035711090988936	-2.218713395902103e-09	-1.347743243157318e-09	-5.851710109013687	-6.876658465560806	10	-30.70362551984218	-2.256801268118918	-1.649801443283376e-09	1.602371594466749e-09	-2.23858866282124	-0.9817463746274024	-6.278643653356323	-99.70631615413518	487.0603862561518	4.990834977889584	1.300973339784226	-1.304975789313467e-09	-0.2289258364961533	-99.70631615413518	487.0603862561518	4.990834977889584	1.300973339784226	-1.304975789313467e-09	-0.2289258364961533	1.014046501287196e-09	0.3345730532714564	4.987735850340464e-10	1.014046501287196e-09	0.3345730532714564	4.987735850340464e-10	1.091728271176088	0.7936807717779372	-0.2769880531414024	1.091728271176088	0.7936807717779372	-0.2769880531414024	1.091728271176088	0.7936807717779372	-0.2769880531414024	1.091728271176088	0.7936807717779372	-0.2769880531414024	1.091728271176088	0.7936807717779372	-0.2769880531414024	1.091728271176088	0.7936807717779372	-0.2769880531414024	1.091728271176088	0.7936807717779372	-0.2769880531414024	1.091728271176088	0.7936807717779372	-0.2769880531414024	1.091728271176088	0.7936807717779372	-0.2769880531414024	1.091728271176088	0.7936807717779372	-0.2769880531414024	1.091728271176088	0.7936807717779372	-0.2769880531414024	1.091728271176088	0.7936807717779372	-0.2769880531414024	1.091728271176088	0.7936807717779372	-0.2769880531414024	1.091728271176088	0.7936807717779372	-0.2769880531414024	1.091728271176088	0.7936807717779372	-0.2769880531414024	1.091728271176088	0.7936807717779372	-0.2769880531414024	1.091728271176088	0.7936807717779372	-0.2769880531414024	1.091728271176088	0.7936807717779372	-0.2769880531414024	1.091728271176088	0.7936807717779372	-0.2769880531414024	1.091728271176088	0.7936807717779372	-0.2769880531414024	1.091728271176088	0.7936807717779372	-0.2769880531414024	1.091728271176088	0.7936807717779372	-0.2769880531414024	1.091728271176088	0.7936807717779372	-0.2769880531414024	1.091728271176088	0.7936807717779372	-0.2769880531414024	1.091728271176088	0.7936807717779372	-0.2769880531414024	1.091728271176088	0.7936807717779372	-0.2769880531414024	1.091728271176088	0.7936807717779372	-0.2769880531414024	1.091728271176088	0.7936807717779372	-0.2769880531414024	1.091728271176088	0.7936807717779372	-0.2769880531414024	1.091728271176088	0.7936807717779372	-0.2769880531414024	1.091728271176088	0.7936807717779372	-0.2769880531414024	1.091728271176088	0.7936807717779372	-0.2769880531414024	1.091728271176088	0.7936807717779372	-0.2769880531414024	1.091728271176088	0.7936807717779372	-0.2769880531414024	1.091728271176088	0.7936807717779372	-0.2769880531414024	1.091728271176088	0.7936807717779372	-0.2769880531414024	1.091728271176088	0.7936807717779372	-0.2769880531414024
0.6333332626086956	1.169403967006327	0.9731603595942342	-0.2956793921783081	-3.226271628604813	-3.314650232105744	9.893596256059316	27.35420693776556	-1.326177156609217	5.475458059159252	-19.60765010279632	-3.54186142549006	-1.172887787498177e-09	-3.222348537803375e-10	-4.222377670740895	-8.516504387878326	10	-35.62782783708277	-13.14389192688974	3.086016124645209e-10	-1.931929930027178e-10	-2.570705329664404	-1.32323581734083	-5.464094729189785	-125.4867219832911	608.1529503902751	-12.74302932538106	1.312791385186189	9.541361789037736e-10	-0.2260990170007205	-125.4867219832911	608.1529503902751	-12.74302932538106	1.312791385186189	9.541361789037736e-10	-0.2260990170007205	3.990916683252664e-10	1.170139466791696	7.903465721469366e-10	3.990916683252664e-10	1.170139466791696	7.903465721469366e-10	1.120231358877865	0.7971158414249617	-0.2741514865753046	1.120231358877865	0.7971158414249617	-0.2741514865753046	1.120231358877865	0.7971158414249617	-0.2741514865753046	1.120231358877865	0.7971158414249617	-0.2741514865753046	1.120231358877865	0.7971158414249617	-0.2741514865753046	1.120231358877865	0.7971158414249617	-0.2741514865753046	1.120231358877865	0.7971158414249617	-0.2741514865753046	1.120231358877865	0.7971158414249617	-0.2741514865753046	1.120231358877865	0.7971158414249617	-0.2741514865753046	1.120231358877865	0.7971158414249617	-0.2741514865753046	1.120231358877865	0.7971158414249617	-0.2741514865753046	1.120231358877865	0.7971158414249617	-0.2741514865753046	1.120231358877865	0.7971158414249617	-0.2741514865753046	1.120231358877865	0.7971158414249617	-0.2741514865753046	1.120231358877865	0.7971158414249617	-0.2741514865753046	1.120231358877865	0.7971158414249617	-0.2741514865753046	1.120231358877865	0.7971158414249617	-0.2741514865753046	1.120231358877865	0.7971158414249617	-0.2741514865753046	1.120231358877865	0.7971158414249617	-0.2741514865753046	1.120231358877865	0.7971158414249617	-0.2741514865753046	1.120231358877865	0.7971158414249617	-0.2741514865753046	1.120231358877865	0.7971158414249617	-0.2741514865753046	1.120231358877865	0.7971158414249617	-0.2741514865753046	1.120231358877865	0.7971158414249617	-0.2741514865753046	1.120231358877865	0.7971158414249617	-0.2741514865753046	1.120231358877865	0.7971158414249617	-0.2741514865753046	1.120231358877865	0.7971158414249617	-0.2741514865753046	1.120231358877865	0.7971158414249617	-0.2741514865753046	1.120231358877865	0.7971158414249617	-0.2741514865753046	1.120231358877865	0.7971158414249617	-0.2741514865753046	1.120231358877865	0.7971158414249617	-0.2741514865753046	1.120231358877865	0.7971158414249617	-0.2741514865753046	1.120231358877865	0.7971158414249617	-0.2741514865753046	1.120231358877865	0.7971158414249617	-0.2741514865753046	1.120231358877865	0.7971158414249617	-0.2741514865753046	1.120231358877865	0.7971158414249617	-0.2741514865753046	1.120231358877865	0.7971158414249617	-0.2741514865753046
0.6541665952173913	1.193512404798914	0.9731603595942342	-0.2911514946906157	-2.819808247782035	-3.361727265998304	9.27158235228438	25.94252759949214	-0.7109520251038983	2.900306268871758	-21.81597969412184	-0.9444832391301028	-1.481800585459431e-10	-7.483674394283489e-10	-1.912709773816097	-9.383960029607298	10	-41.05691368413974	-24.24616456465078	1.882229564771366e-09	3.677870061605574e-10	-2.737210898275948	-1.570106321598187	-4.53027292726401	-119.2975233352181	672.449540912723	-25.20155714527052	1.31730928405941	4.112624116096712e-10	-0.2241339960447289	-119.2975233352181	672.449540912723	-25.20155714527052	1.31730928405941	4.112624116096712e-10	-0.2241339960447289	-5.704604524782929e-10	2.016660208354868	-1.031414720684969e-09	-5.704604524782929e-10	2.016660208354868	-1.031414720684969e-09	1.14590493461901	0.8002729021308879	-0.2727393277738523	1.14590493461901	0.8002729021308879	-0.2727393277738523	1.14590493461901	0.8002729021308879	-0.2727393277738523	1.14590493461901	0.8002729021308879	-0.2727393277738523	1.14590493461901	0.8002729021308879	-0.2727393277738523	1.14590493461901	0.8002729021308879	-0.2727393277738523	1.14590493461901	0.8002729021308879	-0.2727393277738523	1.14590493461901	0.8002729021308879	-0.2727393277738523	1.14590493461901	0.8002729021308879	-0.2727393277738523	1.14590493461901	0.8002729021308879	-0.2727393277738523	1.14590493461901	0.8002729021308879	-0.2727393277738523	1.14590493461901	0.8002729021308879	-0.2727393277738523	1.14590493461901	0.8002729021308879	-0.2727393277738523	1.14590493461901	0.8002729021308879	-0.2727393277738523	1.14590493461901	0.8002729021308879	-0.2727393277738523	1.14590493461901	0.8002729021308879	-0.2727393277738523	1.14590493461901	0.8002729021308879	-0.2727393277738523	1.14590493461901	0.8002729021308879	-0.2727393277738523	1.14590493461901	0.8002729021308879	-0.2727393277738523	1.14590493461901	0.8002729021308879	-0.2727393277738523	1.14590493461901	0.8002729021308879	-0.2727393277738523	1.14590493461901	0.8002729021308879	-0.2727393277738523	1.14590493461901	0.8002729021308879	-0.2727393277738523	1.14590493461901	0.8002729021308879	-0.2727393277738523	1.14590493461901	0.8002729021308879	-0.2727393277738523	1.14590493461901	0.8002729021308879	-0.2727393277738523	1.14590493461901	0.8002729021308879	-0.2727393277738523	1.14590493461901	0.8002729021308879	-0.2727393277738523	1.14590493461901	0.8002729021308879	-0.2727393277738523	1.14590493461901	0.8002729021308879	-0.2727393277738523	1.14590493461901	0.8002729021308879	-0.2727393277738523	1.14590493461901	0.8002729021308879	-0.2727393277738523	1.14590493461901	0.8002729021308879	-0.2727393277738523	1.14590493461901	0.8002729021308879	-0.2727393277738523	1.14590493461901	0.8002729021308879	-0.2727393277738523	1.14590493461901	0.8002729021308879	-0.2727393277738523	1.14590493461901	0.8002729021308879	-0.2727393277738523
0.674999927826087	1.222101478745825	0.9731603595942342	-0.2875812576360726	-2.63619651902248	-3.232134873394928	8.635768554239673	24.3004270348509	-0.2644940067120913	0.5259050122161999	-22.85171811591553	1.448177933055528	-6.898582748308996e-10	-9.76815896945639e-10	0.9178495503777075	-9.50386198049598	10	-46.73338765302507	-31.36156998914563	1.654407259422358e-09	1.013127046502221e-09	-3.148909727009481	-1.50164762084717	-3.507970268566873	-100.9713111664703	678.7987607922614	-35.42601804703809	1.322639625637679	-8.171608331881494e-10	-0.2215841144122234	-100.9713111664703	678.7987607922614	-35.42601804703809	1.322639625637679	-8.171608331881494e-10	-0.2215841144122234	6.378732136480305e-10	2.665972906830124	-2.253581652307644e-09	6.378732136480305e-10	2.665972906830124	-2.253581652307644e-09	1.171904487996751	0.8037666701764572	-0.2706640290914146	1.171904487996751	0.8037666701764572	-0.2706640290914146	1.171904487996751	0.8037666701764572	-0.2706640290914146	1.171904487996751	0.8037666701764572	-0.2706640290914146	1.171904487996751	0.8037666701764572	-0.2706640290914146	1.171904487996751	0.8037666701764572	-0.2706640290914146	1.171904487996751	0.8037666701764572	-0.2706640290914146	1.171904487996751	0.8037666701764572	-0.2706640290914146	1.171904487996751	0.8037666701764572	-0.2706640290914146	1.171904487996751	0.8037666701764572	-0.2706640290914146	1.171904487996751	0.8037666701764572	-0.2706640290914146	1.171904487996751	0.8037666701764572	-0.2706640290914146	1.171904487996751	0.8037666701764572	-0.2706640290914146	1.171904487996751	0.8037666701764572	-0.2706640290914146	1.171904487996751	0.8037666701764572	-0.2706640290914146	1.171904487996751	0.8037666701764572	-0.2706640290914146	1.171904487996751	0.8037666701764572	-0.2706640290914146	1.171904487996751	0.8037666701764572	-0.2706640290914146	1.171904487996751	0.8037666701764572	-0.2706640290914146	1.171904487996751	0.8037666701764572	-0.2706640290914146	1.171904487996751	0.8037666701764572	-0.2706640290914146	1.171904487996751	0.8037666701764572	-0.2706640290914146	1.171904487996751	0.8037666701764572	-0.2706640290914146	1.171904487996751	0.8037666701764572	-0.2706640290914146	1.171904487996751	0.8037666701764572	-0.2706640290914146	1.171904487996751	0.8037666701764572	-0.2706640290914146	1.171904487996751	0.8037666701764572	-0.2706640290914146	1.171904487996751	0.8037666701764572	-0.2706640290914146	1.171904487996751	0.8037666701764572	-0.2706640290914146	1.171904487996751	0.8037666701764572	-0.2706640290914146	1.171904487996751	0.8037666701764572	-0.2706640290914146	1.171904487996751	0.8037666701764572	-0.2706640290914146	1.171904487996751	0.8037666701764572	-0.2706640290914146	1.171904487996751	0.8037666701764572	-0.2706640290914146	1.171904487996751	0.8037666701764572	-0.2706640290914146	1.171904487996751	0.8037666701764572	-0.2706640290914146	1.171904487996751	0.8037666701764572	-0.2706640290914146
